<svg width="71px" height="71px" viewBox="451 104 71 71" version="1.1" xmlns="http://www.w3.org/2000/svg" xmlns:xlink="http://www.w3.org/1999/xlink">
    <!-- Generator: Sketch 42 (36781) - http://www.bohemiancoding.com/sketch -->
    <desc>Created with Sketch.</desc>
    <defs></defs>
    <path d="M484,148.839452 L484,169.998214 L489,169.998214 L489,148.839452 C498.588858,147.61229 506,139.420735 506,129.498214 C506,118.728661 497.269553,109.998214 486.5,109.998214 C475.730447,109.998214 467,118.728661 467,129.498214 C467,139.420735 474.411142,147.61229 484,148.839452 L484,148.839452 L484,148.839452 Z M486.5,146.998214 C496.164984,146.998214 504,139.163198 504,129.498214 C504,119.833231 496.164984,111.998214 486.5,111.998214 C476.835016,111.998214 469,119.833231 469,129.498214 C469,139.163198 476.835016,146.998214 486.5,146.998214 L486.5,146.998214 Z" id="search" stroke="none" fill="#929292" fill-rule="evenodd" transform="translate(486.500000, 139.998214) rotate(-45.000000) translate(-486.500000, -139.998214) "></path>
</svg>